<?xml version="1.0" standalone="no"?>
<!DOCTYPE svg PUBLIC "-//W3C//DTD SVG 1.1//EN"
"http://www.w3.org/Graphics/SVG/1.1/DTD/svg11.dtd">

<svg width="122" height="388" view_box="0 0 122 388"
xmlns="http://www.w3.org/2000/svg"
xmlns:link="http://www.w3.org/1999/xlink">\n\n<desc>Généré par Mocodo 2.3.7 le Sat, 27 Jun 2020 06:29:27</desc>

<rect id="frame" x="0" y="0" width="122" height="388" fill="#f7f7f7" stroke="none" stroke-width="0"/>

<!-- Association BELONG TO -->
<line x1="61" y1="85" x2="61" y2="211" stroke="#4393c3" stroke-width="2"/>
<text x="66.0" y="178" fill="#b2182b" font-family="Verdana" font-size="12">1,1</text>
<line x1="61" y1="320" x2="61" y2="211" stroke="#4393c3" stroke-width="2"/>
<text x="66.0" y="253" fill="#b2182b" font-family="Verdana" font-size="12">1,1</text>
<g id="association-BELONG TO">
	<path d="M 90 186 a 14 14 90 0 1 14 14 V 211 h -86 V 200 a 14 14 90 0 1 14 -14" fill="#92c5de" stroke="#92c5de" stroke-width="0"/>
	<path d="M 104 211.0 v 11 a 14 14 90 0 1 -14 14 H 32 a 14 14 90 0 1 -14 -14 V 211.0 H 86" fill="#d1e5f0" stroke="#d1e5f0" stroke-width="0"/>
	<rect x="18" y="186" width="86" height="50" fill="none" rx="14" stroke="#4393c3" stroke-width="2"/>
	<line x1="18" y1="211" x2="104" y2="211" stroke="#4393c3" stroke-width="1"/>
	<text x="25" y="203.7" fill="#000000" font-family="Verdana" font-size="12">BELONG TO</text>
</g>

<!-- Entity DURATION -->
<g id="entity-DURATION">
	<g id="frame-DURATION">
		<rect x="9" y="9" width="104" height="25" fill="#f4a582" stroke="#f4a582" stroke-width="0"/>
		<rect x="9" y="34.0" width="104" height="127" fill="#fddbc7" stroke="#fddbc7" stroke-width="0"/>
		<rect x="9" y="9" width="104" height="152" fill="none" stroke="#d6604d" stroke-width="2"/>
		<line x1="9" y1="34" x2="113" y2="34" stroke="#d6604d" stroke-width="1"/>
	</g>
	<text x="28" y="26.7" fill="#000000" font-family="Verdana" font-size="12">DURATION</text>
	<text x="14" y="51.7" fill="#000000" font-family="Verdana" font-size="12">departure_date</text>
	<text x="14" y="68.7" fill="#000000" font-family="Verdana" font-size="12">return_date</text>
	<text x="14" y="85.8" fill="#000000" font-family="Verdana" font-size="12">days_number</text>
	<text x="14" y="102.8" fill="#000000" font-family="Verdana" font-size="12">firstname</text>
	<text x="14" y="119.8" fill="#000000" font-family="Verdana" font-size="12">lastname</text>
	<text x="14" y="136.8" fill="#000000" font-family="Verdana" font-size="12">phone</text>
	<text x="14" y="153.8" fill="#000000" font-family="Verdana" font-size="12">code</text>
</g>

<!-- Entity REVIEW -->
<g id="entity-REVIEW">
	<g id="frame-REVIEW">
		<rect x="27" y="261" width="68" height="25" fill="#f4a582" stroke="#f4a582" stroke-width="0"/>
		<rect x="27" y="286.0" width="68" height="93" fill="#fddbc7" stroke="#fddbc7" stroke-width="0"/>
		<rect x="27" y="261" width="68" height="118" fill="none" stroke="#d6604d" stroke-width="2"/>
		<line x1="27" y1="286" x2="95" y2="286" stroke="#d6604d" stroke-width="1"/>
	</g>
	<text x="36" y="278.7" fill="#000000" font-family="Verdana" font-size="12">REVIEW</text>
	<text x="32" y="303.7" fill="#000000" font-family="Verdana" font-size="12">firstname</text>
	<text x="32" y="320.8" fill="#000000" font-family="Verdana" font-size="12">lastname</text>
	<text x="32" y="337.8" fill="#000000" font-family="Verdana" font-size="12">picture</text>
	<text x="32" y="354.8" fill="#000000" font-family="Verdana" font-size="12">comment</text>
	<text x="32" y="371.8" fill="#000000" font-family="Verdana" font-size="12">rating</text>
</g>
</svg>