<svg width="1920" height="1080" viewBox="0 0 1920 1080" fill="none" xmlns="http://www.w3.org/2000/svg">
<rect width="1920" height="1080" fill="#E5E5E5"/>
<rect width="1920" height="1080" fill="#161526"/>
<path d="M2211.81 1021.29C2211.81 1120.98 2216 1178.29 2116.31 1178.29C2016.63 1178.29 1534 902.975 1534 803.288C1534 703.601 1947.13 846.788 2046.81 846.788C2146.5 846.788 2211.81 921.6 2211.81 1021.29Z" fill="url(#paint0_linear)" fill-opacity="0.72"/>
<path d="M481.442 138.652C284.284 249.984 286.816 709.968 138.5 709.968C-9.81563 709.968 -130.165 247.055 -130.165 138.652C-130.165 -12.3706 -42.5406 -125.032 105.775 -125.032C254.091 -125.032 739.779 -7.22713 481.442 138.652Z" fill="url(#paint1_linear)" fill-opacity="0.72"/>
<path d="M2059.56 -94.2352C2059.6 93.4031 2482.91 584.82 1839.29 584.97C1684.36 585.006 1364.51 451.787 1307.17 129.018C1284.22 -60.209 1621.86 64.5424 1807.94 64.4989C1994.01 64.4555 2059.51 -281.873 2059.56 -94.2352Z" fill="url(#paint2_linear)" fill-opacity="0.72"/>
<path d="M2441 517.779L2364.58 546.42C2288.17 577.223 2197.42 870.042 2044.59 871.663C1891.76 870.042 2253.78 899.482 2100.95 1012.97C2269.06 1318.33 1493.43 974.415 1405.55 925.99C1244.98 837.509 605.09 1021.84 452.256 993.199C299.423 962.396 238.019 819.263 201.036 672.011C169.515 546.5 -124.69 543.349 -201.106 401.224L-310 344.852V-0.999908H-233.583C-157.167 -0.999908 -4.33333 -0.999908 148.5 -0.999908C301.333 -0.999908 454.167 -0.999908 607 -0.999908C759.833 -0.999908 912.667 -0.999908 1065.5 -0.999908C1218.33 -0.999908 1371.17 -0.999908 1524 -0.999908C1676.83 -0.999908 1829.67 -0.999908 1982.5 -0.999908C2135.33 -0.999908 2288.17 -0.999908 2364.58 -0.999908H2441V517.779Z" fill="url(#paint3_linear)" fill-opacity="0.72"/>
<defs>
<linearGradient id="paint0_linear" x1="322.353" y1="1002.63" x2="1880.51" y2="732.255" gradientUnits="userSpaceOnUse">
<stop stop-color="#A543F1"/>
<stop offset="1" stop-color="#4845EE"/>
</linearGradient>
<linearGradient id="paint1_linear" x1="322.353" y1="1002.63" x2="1880.51" y2="732.255" gradientUnits="userSpaceOnUse">
<stop stop-color="#A543F1"/>
<stop offset="1" stop-color="#4845EE"/>
</linearGradient>
<linearGradient id="paint2_linear" x1="322.353" y1="1002.63" x2="1880.51" y2="732.255" gradientUnits="userSpaceOnUse">
<stop stop-color="#A543F1"/>
<stop offset="1" stop-color="#4845EE"/>
</linearGradient>
<linearGradient id="paint3_linear" x1="322.353" y1="1002.63" x2="1880.51" y2="732.255" gradientUnits="userSpaceOnUse">
<stop stop-color="#A543F1"/>
<stop offset="1" stop-color="#4845EE"/>
</linearGradient>
</defs>
</svg>
