<svg width="43" height="70" viewBox="0 0 43 70" fill="none" xmlns="http://www.w3.org/2000/svg">
<path d="M21.6168 1.45836e-05C21.6168 0.0653771 21.6168 0.13074 21.6168 0.20693C21.7989 0.215844 21.9859 0.266682 21.9921 0.0844448C22.0127 0.159108 22.0334 0.233771 22.0593 0.327738C21.9138 0.336959 21.7834 0.345217 21.6313 0.354849C21.624 0.409387 21.611 0.461446 21.6109 0.513515C21.6096 1.30941 21.5985 2.10543 21.621 2.90108C21.6248 3.03609 21.7863 3.16724 21.8517 3.30449C21.8916 3.38823 21.9127 3.48217 21.8961 3.56807C21.8724 3.69154 22.025 3.84798 21.7446 3.9349C21.7251 3.94094 21.7344 4.0205 21.7675 4.04912C21.9568 4.21276 21.9564 4.53279 21.7743 4.68584C21.7372 4.71706 21.7398 4.79587 21.7779 4.82777C21.9472 4.96968 21.9547 5.32408 21.7865 5.45482C21.7468 5.48568 21.7334 5.57675 21.7466 5.58007C22.0095 5.64612 21.8609 5.78747 21.9039 5.89202C21.9261 5.94588 21.9394 6.02748 21.9973 6.04529C22.7006 6.26172 23.0798 6.64018 23.3548 7.07413C23.3834 7.11924 23.4138 7.16388 23.4527 7.22291C23.6289 7.22291 23.8102 7.22291 24.0081 7.22291C24.0081 7.4117 24.0081 7.58539 24.0081 7.74899C23.888 7.78416 23.7769 7.8167 23.6658 7.84923C23.7527 7.88201 23.8397 7.91479 23.968 7.96317C23.968 8.13121 23.968 8.33373 23.968 8.54822C23.8754 8.55688 23.7836 8.56548 23.6908 8.57416C23.5977 8.72394 23.7497 8.72236 23.9071 8.72052C24.0525 8.71883 24.198 8.72016 24.3862 8.72016C24.4253 9.06692 24.4635 9.40555 24.4941 9.67645C24.2541 9.80791 24.0672 9.88305 23.9377 9.98623C23.5196 10.3194 23.4027 10.725 23.3224 11.1285C23.2653 11.4159 23.2561 11.7098 23.273 11.9998C23.4199 14.519 23.5575 17.0386 23.7374 19.557C23.939 22.3787 24.1595 25.2001 24.4139 28.0201C24.6118 30.2152 24.8561 32.4087 25.114 34.6014C25.3049 36.2243 25.505 37.8478 25.7857 39.4653C26.0411 40.9371 26.4099 42.4013 26.7304 43.8687C26.7763 44.0788 26.8314 44.2882 26.8863 44.5148C27.3158 44.5148 27.7403 44.5148 28.1579 44.5148C28.2046 44.6715 28.2544 44.8097 28.2811 44.9497C28.2871 44.981 28.2172 45.0455 28.1742 45.0484C27.9178 45.0658 27.7964 45.1754 27.7292 45.3048C27.5301 45.6882 27.413 46.0774 27.5762 46.4812C28.5108 48.7928 29.4123 51.1098 30.3916 53.4139C30.7895 54.3499 31.3581 55.2576 31.8411 56.1798C31.8957 56.284 31.9896 56.3016 32.1422 56.3004C32.6556 56.2962 33.1692 56.2988 33.6817 56.2988C33.6817 56.8577 33.6817 57.3947 33.6817 57.9436C33.8762 57.9551 34.0507 57.9654 34.2436 57.9767C33.8334 58.3153 33.6307 58.9032 33.8113 59.2142C33.7555 59.2343 33.6965 59.2555 33.6257 59.281C34.2656 60.1009 34.8991 60.9136 35.534 61.7258C37.3802 64.0877 39.2278 66.4491 41.0716 68.8116C41.1779 68.9477 41.3157 69.0361 41.55 69.1034C41.9093 69.2065 42.2312 69.3604 42.569 69.4927C42.4838 69.7334 42.7811 69.8343 43 69.9635C42.9221 69.9757 42.8442 69.9984 42.7663 69.9985C39.9035 70.0003 37.0408 70 34.178 70C34.2434 69.8526 34.365 69.7055 34.1334 69.5653C34.0997 69.5448 34.111 69.4613 34.15 69.434C34.3401 69.3005 34.4147 69.1469 34.4151 68.9725C34.4178 67.8411 33.8103 66.8214 32.9615 65.8433C31.1578 63.7644 26.9392 61.9261 22.6971 61.7451C19.1503 61.5937 16.0031 62.1638 13.2255 63.543C10.8003 64.7473 9.24313 66.2849 8.68902 68.1948C8.56628 68.6179 8.37662 69.0677 8.8837 69.4652C8.90951 69.4854 8.90108 69.5494 8.87044 69.5667C8.62647 69.7038 8.76967 69.8531 8.82201 70C5.95924 70 3.09647 70.0003 0.233702 69.9985C0.155782 69.9984 0.0778966 69.9757 0 69.9635C0.211179 69.8385 0.494255 69.7393 0.431899 69.4795C0.804176 69.3487 1.21504 69.2133 1.60854 69.0605C1.73139 69.0128 1.83558 68.9267 1.9007 68.8437C3.64922 66.6138 5.39158 64.382 7.13483 62.1505C7.79976 61.2994 8.46329 60.4478 9.13028 59.5972C9.21349 59.4911 9.27003 59.3986 9.22812 59.266C9.1741 59.095 9.24835 58.9098 9.22099 58.7336C9.1801 58.4702 9.10257 58.2083 8.72996 57.9793C8.9433 57.9672 9.11438 57.9574 9.31439 57.9461C9.31439 57.4032 9.31439 56.8663 9.31439 56.2987C9.74436 56.2987 10.1776 56.2987 10.6107 56.2986C11.09 56.2986 11.0765 56.2952 11.2525 56.0174C12.4331 54.1539 13.1262 52.2034 13.9026 50.2676C14.4196 48.9786 14.9528 47.6921 15.4503 46.4002C15.6007 46.0098 15.4867 45.6149 15.2259 45.2486C15.1662 45.1648 14.9697 45.1207 14.8446 45.0523C14.7907 45.0228 14.7169 44.9752 14.7231 44.9408C14.7472 44.8064 14.7997 44.674 14.8481 44.5206C15.2529 44.5206 15.6765 44.5206 16.1173 44.5206C16.2756 43.8569 16.4498 43.2113 16.5803 42.5623C16.8964 40.9902 17.2226 39.4185 17.486 37.8428C17.6829 36.6652 17.795 35.482 17.9325 34.3008C18.1097 32.7802 18.287 31.2595 18.4407 29.7379C18.5632 28.5254 18.654 27.3116 18.7527 26.0982C18.9047 24.2295 19.0563 22.3607 19.199 20.4917C19.3283 18.7986 19.4579 17.1054 19.5639 15.4117C19.6444 14.1248 19.7077 12.8371 19.7387 11.5493C19.7507 11.05 19.5942 10.5569 19.1977 10.1109C19.0535 9.94864 18.8933 9.78173 18.5004 9.749C18.5387 9.41354 18.5768 9.07935 18.6154 8.74156C18.8669 8.72206 19.0991 8.70523 19.3296 8.68178C19.3385 8.68087 19.3308 8.61627 19.3308 8.5727C19.2312 8.56644 19.1466 8.56112 19.0377 8.55428C19.0377 8.34938 19.0377 8.14683 19.0377 7.95274C19.142 7.91737 19.2393 7.88438 19.3366 7.85139C19.2353 7.82029 19.1339 7.7892 18.9998 7.74804C18.9998 7.59528 18.9998 7.41748 18.9998 7.22528C19.1891 7.22528 19.3705 7.22528 19.5551 7.22528C19.7741 6.85155 20.0334 6.50654 20.517 6.24911C20.5615 6.22547 20.5979 6.19065 20.6489 6.17804C21.0046 6.09006 21.1825 5.94196 21.1083 5.69381C21.1012 5.67018 21.1914 5.64024 21.2099 5.60741C21.2352 5.56244 21.2717 5.49744 21.24 5.46609C21.0426 5.27142 21.043 5.03431 21.2496 4.81616C21.2785 4.78561 21.2788 4.72588 21.2498 4.69558C21.0444 4.48153 21.0405 4.23083 21.2397 4.04715C21.2715 4.01791 21.282 3.94445 21.2532 3.93033C20.9212 3.76722 21.1595 3.54958 21.1159 3.36118C21.099 3.28821 21.2396 3.20585 21.275 3.12225C21.3295 2.99391 21.3858 2.86099 21.3878 2.7297C21.3985 2.00668 21.393 1.28357 21.393 0.560488C21.393 0.495268 21.393 0.430051 21.393 0.356901C21.2388 0.347692 21.1156 0.340335 20.9567 0.330848C20.9743 0.246863 20.9906 0.168448 21.002 0.114122C21.1066 0.154467 21.215 0.196295 21.3832 0.261187C21.3832 0.130623 21.3832 0.0653114 21.3832 0C21.461 1.45833e-05 21.539 1.45836e-05 21.6168 1.45836e-05ZM18.8967 48.3817C18.2002 51.0334 17.5727 53.6725 16.6664 56.2847C19.8862 56.2847 23.1279 56.2847 26.3184 56.2847C25.5663 53.6463 24.8165 51.0161 24.0655 48.3817C22.3564 48.3817 20.6367 48.3817 18.8967 48.3817Z" fill="#F8F8F8"/>
</svg>
