<svg width="167" height="57" viewBox="0 0 167 57" fill="none" xmlns="http://www.w3.org/2000/svg">
<path d="M14.4 11.95C19.5667 11.95 23.5333 12.8667 26.3 14.7C29.0667 16.5 30.45 19.4667 30.45 23.6C30.45 27.7667 29.05 30.7833 26.25 32.65C23.45 34.4833 19.45 35.4 14.25 35.4H11.8V47H4V12.85C5.7 12.5167 7.5 12.2833 9.4 12.15C11.3 12.0167 12.9667 11.95 14.4 11.95ZM14.9 18.6C14.3333 18.6 13.7667 18.6167 13.2 18.65C12.6667 18.6833 12.2 18.7167 11.8 18.75V28.75H14.25C16.95 28.75 18.9833 28.3833 20.35 27.65C21.7167 26.9167 22.4 25.55 22.4 23.55C22.4 22.5833 22.2167 21.7833 21.85 21.15C21.5167 20.5167 21.0167 20.0167 20.35 19.65C19.7167 19.25 18.9333 18.9833 18 18.85C17.0667 18.6833 16.0333 18.6 14.9 18.6ZM70.3512 11.95C75.5512 11.95 79.5345 12.8833 82.3012 14.75C85.0678 16.5833 86.4512 19.45 86.4512 23.35C86.4512 25.7833 85.8845 27.7667 84.7512 29.3C83.6512 30.8 82.0512 31.9833 79.9512 32.85C80.6512 33.7167 81.3845 34.7167 82.1512 35.85C82.9178 36.95 83.6678 38.1167 84.4012 39.35C85.1678 40.55 85.9012 41.8167 86.6012 43.15C87.3012 44.45 87.9512 45.7333 88.5512 47H79.8012C79.1678 45.8667 78.5178 44.7167 77.8512 43.55C77.2178 42.3833 76.5512 41.25 75.8512 40.15C75.1845 39.05 74.5178 38.0167 73.8512 37.05C73.1845 36.05 72.5178 35.15 71.8512 34.35H68.0012V47H60.2012V12.85C61.9012 12.5167 63.6512 12.2833 65.4512 12.15C67.2845 12.0167 68.9178 11.95 70.3512 11.95ZM70.8012 18.6C70.2345 18.6 69.7178 18.6167 69.2512 18.65C68.8178 18.6833 68.4012 18.7167 68.0012 18.75V28.15H70.2012C73.1345 28.15 75.2345 27.7833 76.5012 27.05C77.7678 26.3167 78.4012 25.0667 78.4012 23.3C78.4012 21.6 77.7512 20.4 76.4512 19.7C75.1845 18.9667 73.3012 18.6 70.8012 18.6ZM100.038 8.65C100.105 9.11667 100.155 9.6 100.188 10.1C100.221 10.6 100.238 10.9667 100.238 11.2C100.238 13.4333 99.8379 15.5667 99.0379 17.6C98.2379 19.6 97.2546 21.3 96.0879 22.7L90.8379 21.5C91.4712 20.0667 91.9712 18.45 92.3379 16.65C92.7379 14.85 92.9379 13.1333 92.9379 11.5C92.9379 11.4333 92.9379 11.3 92.9379 11.1C92.9379 10.8667 92.9212 10.6167 92.8879 10.35C92.8879 10.05 92.8712 9.75 92.8379 9.45C92.8379 9.15 92.8212 8.88333 92.7879 8.65H100.038ZM106.246 12.35H114.046V47H106.246V12.35ZM137.866 47.7C132.233 47.7 127.933 46.1333 124.966 43C122.033 39.8667 120.566 35.4167 120.566 29.65C120.566 26.7833 121.016 24.2333 121.916 22C122.816 19.7333 124.05 17.8333 125.616 16.3C127.183 14.7333 129.05 13.55 131.216 12.75C133.383 11.95 135.733 11.55 138.266 11.55C139.733 11.55 141.066 11.6667 142.266 11.9C143.466 12.1 144.516 12.35 145.416 12.65C146.316 12.9167 147.066 13.2 147.666 13.5C148.266 13.8 148.7 14.0333 148.966 14.2L146.716 20.5C145.65 19.9333 144.4 19.45 142.966 19.05C141.566 18.65 139.966 18.45 138.166 18.45C136.966 18.45 135.783 18.65 134.616 19.05C133.483 19.45 132.466 20.1 131.566 21C130.7 21.8667 130 23 129.466 24.4C128.933 25.8 128.666 27.5 128.666 29.5C128.666 31.1 128.833 32.6 129.166 34C129.533 35.3667 130.1 36.55 130.866 37.55C131.666 38.55 132.7 39.35 133.966 39.95C135.233 40.5167 136.766 40.8 138.566 40.8C139.7 40.8 140.716 40.7333 141.616 40.6C142.516 40.4667 143.316 40.3167 144.016 40.15C144.716 39.95 145.333 39.7333 145.866 39.5C146.4 39.2667 146.883 39.05 147.316 38.85L149.466 45.1C148.366 45.7667 146.816 46.3667 144.816 46.9C142.816 47.4333 140.5 47.7 137.866 47.7ZM154.488 12.35H162.288V47H154.488V12.35Z" fill="#F8F8F8"/>
<path d="M41.5625 10C41.5625 10.0346 41.5625 10.0691 41.5625 10.1094C41.6599 10.1141 41.7599 10.141 41.7632 10.0446C41.7742 10.0841 41.7853 10.1236 41.7992 10.1732C41.7213 10.1781 41.6516 10.1825 41.5702 10.1876C41.5663 10.2164 41.5594 10.2439 41.5593 10.2714C41.5586 10.6921 41.5527 11.1129 41.5647 11.5334C41.5668 11.6048 41.6532 11.6741 41.6881 11.7467C41.7094 11.7909 41.7207 11.8406 41.7119 11.886C41.6992 11.9512 41.7808 12.0339 41.6308 12.0799C41.6204 12.0831 41.6254 12.1251 41.6431 12.1403C41.7443 12.2267 41.7441 12.3959 41.6467 12.4768C41.6269 12.4933 41.6283 12.535 41.6486 12.5518C41.7392 12.6268 41.7432 12.8142 41.6533 12.8833C41.632 12.8996 41.6248 12.9477 41.6319 12.9495C41.7725 12.9844 41.693 13.0591 41.716 13.1144C41.7279 13.1428 41.7351 13.186 41.766 13.1954C42.1422 13.3098 42.345 13.5098 42.4921 13.7392C42.5074 13.763 42.5237 13.7866 42.5445 13.8178C42.6387 13.8178 42.7357 13.8178 42.8415 13.8178C42.8415 13.9176 42.8415 14.0094 42.8415 14.0959C42.7773 14.1145 42.7179 14.1317 42.6584 14.1489C42.705 14.1662 42.7515 14.1835 42.8201 14.2091C42.8201 14.2979 42.8201 14.405 42.8201 14.5183C42.7706 14.5229 42.7214 14.5275 42.6718 14.5321C42.622 14.6112 42.7033 14.6104 42.7875 14.6094C42.8653 14.6085 42.9431 14.6092 43.0438 14.6092C43.0647 14.7925 43.0851 14.9715 43.1015 15.1147C42.9731 15.1842 42.8732 15.2239 42.8039 15.2784C42.5803 15.4545 42.5177 15.6689 42.4748 15.8822C42.4442 16.0341 42.4393 16.1895 42.4484 16.3427C42.5269 17.6743 42.6005 19.0061 42.6967 20.3372C42.8046 21.8287 42.9225 23.32 43.0586 24.8106C43.1645 25.9709 43.2951 27.1303 43.4331 28.2893C43.5352 29.1471 43.6422 30.0053 43.7923 30.8602C43.9289 31.6382 44.1262 32.4121 44.2976 33.1877C44.3222 33.2988 44.3517 33.4095 44.381 33.5292C44.6108 33.5292 44.8379 33.5292 45.0612 33.5292C45.0862 33.6121 45.1128 33.6851 45.1271 33.7591C45.1303 33.7757 45.0929 33.8098 45.0699 33.8113C44.9328 33.8205 44.8678 33.8784 44.8319 33.9468C44.7254 34.1495 44.6627 34.3552 44.7501 34.5686C45.25 35.7905 45.7321 37.0152 46.256 38.2331C46.4688 38.7278 46.773 39.2076 47.0313 39.695C47.0605 39.7501 47.1107 39.7594 47.1923 39.7588C47.467 39.7566 47.7417 39.7579 48.0158 39.7579C48.0158 40.0534 48.0158 40.3372 48.0158 40.6273C48.1198 40.6334 48.2132 40.6388 48.3163 40.6448C48.097 40.8238 47.9885 41.1345 48.0851 41.2989C48.0553 41.3095 48.0237 41.3207 47.9858 41.3342C48.3281 41.7676 48.6669 42.1972 49.0065 42.6265C49.9941 43.8749 50.9823 45.1231 51.9685 46.3718C52.0254 46.4438 52.0991 46.4905 52.2244 46.5261C52.4166 46.5806 52.5888 46.6619 52.7695 46.7319C52.7239 46.8591 52.8829 46.9124 53 46.9807C52.9583 46.9871 52.9167 46.9992 52.875 46.9992C51.3438 47.0001 49.8125 47 48.2812 47C48.3162 46.9221 48.3813 46.8444 48.2574 46.7702C48.2394 46.7594 48.2454 46.7153 48.2663 46.7008C48.3679 46.6303 48.4079 46.5491 48.4081 46.4569C48.4095 45.8589 48.0846 45.3199 47.6306 44.8029C46.6658 43.7041 44.4093 42.7324 42.1403 42.6367C40.2432 42.5567 38.5598 42.858 37.0741 43.587C35.7769 44.2236 34.944 45.0363 34.6476 46.0458C34.582 46.2695 34.4805 46.5072 34.7517 46.7173C34.7656 46.728 34.761 46.7618 34.7447 46.771C34.6142 46.8434 34.6908 46.9223 34.7188 47C33.1875 47 31.6562 47.0001 30.125 46.9992C30.0833 46.9992 30.0417 46.9871 30 46.9807C30.113 46.9146 30.2644 46.8622 30.231 46.7249C30.4301 46.6557 30.6499 46.5842 30.8604 46.5034C30.9261 46.4782 30.9818 46.4327 31.0167 46.3888C31.9519 45.2102 32.8839 44.0305 33.8163 42.851C34.172 42.4011 34.5269 41.951 34.8836 41.5014C34.9281 41.4453 34.9584 41.3964 34.936 41.3263C34.9071 41.2359 34.9468 41.138 34.9322 41.0449C34.9103 40.9057 34.8688 40.7673 34.6695 40.6462C34.7836 40.6398 34.8751 40.6346 34.9821 40.6287C34.9821 40.3417 34.9821 40.0579 34.9821 39.7579C35.2121 39.7579 35.4438 39.7579 35.6755 39.7579C35.9318 39.7578 35.9246 39.756 36.0188 39.6092C36.6503 38.6242 37.021 37.5932 37.4363 36.57C37.7128 35.8887 37.998 35.2087 38.2641 34.5258C38.3446 34.3194 38.2836 34.1107 38.1441 33.9171C38.1121 33.8728 38.0071 33.8495 37.9401 33.8134C37.9113 33.7978 37.8718 33.7726 37.8751 33.7544C37.8881 33.6834 37.9161 33.6134 37.942 33.5323C38.1585 33.5323 38.3851 33.5323 38.6209 33.5323C38.7055 33.1815 38.7987 32.8403 38.8685 32.4972C39.0376 31.6663 39.2121 30.8355 39.353 30.0026C39.4583 29.3802 39.5182 28.7548 39.5918 28.1304C39.6866 27.3267 39.7814 26.5229 39.8636 25.7186C39.9292 25.0777 39.9777 24.4361 40.0305 23.7948C40.1118 22.807 40.1929 21.8192 40.2692 20.8313C40.3384 19.9364 40.4077 19.0414 40.4644 18.1462C40.5075 17.4659 40.5413 16.7853 40.5579 16.1046C40.5643 15.8407 40.4806 15.5801 40.2685 15.3443C40.1914 15.2586 40.1057 15.1703 39.8955 15.153C39.916 14.9757 39.9364 14.7991 39.9571 14.6205C40.0916 14.6102 40.2158 14.6013 40.3391 14.5889C40.3439 14.5885 40.3397 14.5543 40.3397 14.5313C40.2864 14.528 40.2412 14.5252 40.183 14.5216C40.183 14.4132 40.183 14.3062 40.183 14.2036C40.2388 14.1849 40.2908 14.1675 40.3428 14.15C40.2886 14.1336 40.2344 14.1171 40.1627 14.0954C40.1627 14.0146 40.1627 13.9207 40.1627 13.8191C40.2639 13.8191 40.361 13.8191 40.4597 13.8191C40.5768 13.6215 40.7156 13.4392 40.9742 13.3031C40.998 13.2906 41.0175 13.2722 41.0448 13.2655C41.235 13.219 41.3302 13.1407 41.2905 13.0096C41.2867 12.9971 41.3349 12.9813 41.3448 12.9639C41.3584 12.9401 41.3779 12.9058 41.3609 12.8892C41.2553 12.7863 41.2556 12.661 41.3661 12.5457C41.3815 12.5295 41.3817 12.498 41.3662 12.4819C41.2563 12.3688 41.2542 12.2363 41.3608 12.1392C41.3778 12.1238 41.3834 12.0849 41.368 12.0775C41.1904 11.9912 41.3179 11.8762 41.2945 11.7766C41.2855 11.7381 41.3607 11.6945 41.3797 11.6503C41.4088 11.5825 41.4389 11.5122 41.44 11.4428C41.4457 11.0607 41.4427 10.6785 41.4428 10.2963C41.4428 10.2618 41.4428 10.2273 41.4428 10.1886C41.3603 10.1838 41.2944 10.1799 41.2094 10.1749C41.2188 10.1305 41.2276 10.089 41.2336 10.0603C41.2896 10.0816 41.3475 10.1038 41.4375 10.1381C41.4375 10.069 41.4375 10.0345 41.4375 10C41.4792 10 41.5208 10 41.5625 10ZM40.1075 35.5732C39.735 36.9748 39.3993 38.3697 38.9146 39.7505C40.6368 39.7505 42.3707 39.7505 44.0773 39.7505C43.675 38.3559 43.274 36.9657 42.8723 35.5732C41.9581 35.5732 41.0383 35.5732 40.1075 35.5732Z" fill="#F8F8F8"/>
</svg>
